<svg id="visual" viewBox="0 0 900 600" width="900" height="600" xmlns="http://www.w3.org/2000/svg" xmlns:xlink="http://www.w3.org/1999/xlink" version="1.1"><path d="M0 37L113 61L225 55L338 37L450 43L563 61L675 25L788 43L900 127L900 0L788 0L675 0L563 0L450 0L338 0L225 0L113 0L0 0Z" fill="#000000"></path><path d="M0 97L113 193L225 175L338 187L450 115L563 139L675 157L788 241L900 175L900 125L788 41L675 23L563 59L450 41L338 35L225 53L113 59L0 35Z" fill="#030404"></path><path d="M0 157L113 223L225 217L338 259L450 127L563 211L675 223L788 277L900 199L900 173L788 239L675 155L563 137L450 113L338 185L225 173L113 191L0 95Z" fill="#060707"></path><path d="M0 247L113 265L225 277L338 271L450 193L563 289L675 271L788 385L900 313L900 197L788 275L675 221L563 209L450 125L338 257L225 215L113 221L0 155Z" fill="#090a0a"></path><path d="M0 433L113 409L225 421L338 427L450 397L563 433L675 493L788 463L900 457L900 311L788 383L675 269L563 287L450 191L338 269L225 275L113 263L0 245Z" fill="#0a0b0b"></path><path d="M0 517L113 451L225 493L338 481L450 445L563 517L675 547L788 475L900 493L900 455L788 461L675 491L563 431L450 395L338 425L225 419L113 407L0 431Z" fill="#090a0a"></path><path d="M0 523L113 475L225 523L338 529L450 499L563 535L675 553L788 517L900 505L900 491L788 473L675 545L563 515L450 443L338 479L225 491L113 449L0 515Z" fill="#060707"></path><path d="M0 535L113 535L225 553L338 589L450 535L563 559L675 589L788 553L900 535L900 503L788 515L675 551L563 533L450 497L338 527L225 521L113 473L0 521Z" fill="#030404"></path><path d="M0 601L113 601L225 601L338 601L450 601L563 601L675 601L788 601L900 601L900 533L788 551L675 587L563 557L450 533L338 587L225 551L113 533L0 533Z" fill="#000000"></path></svg>